<svg xmlns="http://www.w3.org/2000/svg" version="1.1" xmlns:xlink="http://www.w3.org/1999/xlink" xmlns:svgjs="http://svgjs.dev/svgjs" width="1000" height="1000" viewBox="0 0 1000 1000"><rect width="1000" height="1000" fill="#184a5b"></rect><g transform="matrix(0.7,0,0,0.7,149.57575757575756,282.1265587044535)"><svg viewBox="0 0 396 247" data-background-color="#184a5b" preserveAspectRatio="xMidYMid meet" height="623" width="1000" xmlns="http://www.w3.org/2000/svg" xmlns:xlink="http://www.w3.org/1999/xlink"><g id="tight-bounds" transform="matrix(1,0,0,1,0.2400000000000091,-0.09999999999999432)"><svg viewBox="0 0 395.52 247.2" height="247.2" width="395.52"><g><svg></svg></g><g><svg viewBox="0 0 395.52 247.2" height="247.2" width="395.52"><g transform="matrix(1,0,0,1,75.54432,64.89016725304465)"><svg viewBox="0 0 244.43135999999998 117.41966549391068" height="117.41966549391068" width="244.43135999999998"><g><svg viewBox="0 0 244.43135999999998 117.41966549391068" height="117.41966549391068" width="244.43135999999998"><g><svg viewBox="0 0 244.43135999999998 117.41966549391068" height="117.41966549391068" width="244.43135999999998"><g><svg viewBox="0 0 244.43135999999998 117.41966549391068" height="117.41966549391068" width="244.43135999999998"><g><svg viewBox="0 0 244.43135999999998 117.41966549391068" height="117.41966549391068" width="244.43135999999998"><g><svg viewBox="0 0 244.43135999999998 117.41966549391068" height="117.41966549391068" width="244.43135999999998"><g transform="matrix(1,0,0,1,0,0)"><svg width="244.43135999999998" viewBox="3.6500000953674316 -35 73.88999938964844 35.5" height="117.41966549391068" data-palette-color="#ffffff"><g class="undefined-text-0" data-fill-palette-color="primary" id="text-0"><path d="M10.95 0.5L10.95 0.5Q8.05 0.5 6.48-0.43 4.9-1.35 4.28-3.48 3.65-5.6 3.65-9.25L3.65-9.25 3.65-24.5Q3.65-24.75 3.7-24.85 3.75-24.95 4-24.98 4.25-25 4.85-25L4.85-25 4.85-8.9Q4.85-5.7 5.4-3.93 5.95-2.15 7.35-1.43 8.75-0.7 11.35-0.7L11.35-0.7Q12.35-0.7 14.13-1 15.9-1.3 17.4-2.1L17.4-2.1 17.4-24.5Q17.4-24.75 17.5-24.85 17.6-24.95 17.88-24.98 18.15-25 18.6-25L18.6-25 18.6-1.15Q16.75-0.2 14.68 0.15 12.6 0.5 10.95 0.5ZM25.6 0L25.6 0 25.6-23.3Q27.35-24.55 29.05-25.03 30.75-25.5 32.15-25.5L32.15-25.5Q33.9-25.5 34.9-25.1 35.9-24.7 35.9-24.15L35.9-24.15Q35.9-23.95 35.8-23.7 35.7-23.45 35.6-23.35L35.6-23.35Q35.05-23.7 34.22-24 33.4-24.3 32.25-24.3L32.25-24.3Q30.7-24.3 29.32-23.88 27.95-23.45 26.8-22.55L26.8-22.55 26.8-0.5Q26.8-0.25 26.72-0.15 26.65-0.05 26.4-0.03 26.15 0 25.6 0ZM46.05 0L40.2 0 40.2-34.2Q40.2-34.55 40.42-34.77 40.65-35 41.4-35L41.4-35 46.45-35Q48.8-35 50.62-34.1 52.45-33.2 53.67-31.3 54.89-29.4 55.52-26.45 56.15-23.5 56.15-19.4L56.15-19.4Q56.15-13 55.3-9.15 54.45-5.3 53-3.33 51.55-1.35 49.75-0.68 47.95 0 46.05 0L46.05 0ZM41.4-33.8L41.4-1.2 46-1.2Q47.7-1.2 49.3-1.83 50.9-2.45 52.17-4.33 53.45-6.2 54.2-9.8 54.95-13.4 54.95-19.4L54.95-19.4Q54.95-23.1 54.45-25.8 53.95-28.5 52.87-30.28 51.8-32.05 50.15-32.93 48.5-33.8 46.2-33.8L46.2-33.8 41.4-33.8ZM67.79 0L61.94 0 61.94-34.2Q61.94-34.55 62.17-34.77 62.39-35 63.14-35L63.14-35 68.19-35Q69.54-35 70.99-34.7 72.44-34.4 73.69-33.63 74.94-32.85 75.72-31.38 76.49-29.9 76.49-27.5L76.49-27.5Q76.49-24.35 75.62-22.65 74.74-20.95 73.57-20.23 72.39-19.5 71.39-19.35L71.39-19.35Q72.14-19.35 73.17-19.05 74.19-18.75 75.19-17.98 76.19-17.2 76.87-15.75 77.54-14.3 77.54-11.95L77.54-11.95Q77.54-8.45 76.77-6.2 75.99-3.95 74.77-2.68 73.54-1.4 72.19-0.83 70.84-0.25 69.67-0.13 68.49 0 67.79 0L67.79 0ZM63.14-18.55L63.14-1.2 67.74-1.2Q69.34-1.2 70.87-1.65 72.39-2.1 73.64-3.28 74.89-4.45 75.62-6.53 76.34-8.6 76.34-11.85L76.34-11.85Q76.34-14.25 75.67-15.6 74.99-16.95 73.82-17.6 72.64-18.25 71.07-18.4 69.49-18.55 67.69-18.55L67.69-18.55 63.14-18.55ZM63.14-33.85L63.14-19.75 68.39-19.75Q70.29-19.75 71.84-20.4 73.39-21.05 74.34-22.73 75.29-24.4 75.29-27.45L75.29-27.45Q75.29-30.05 74.22-31.43 73.14-32.8 71.47-33.33 69.79-33.85 67.94-33.85L67.94-33.85 63.14-33.85Z" fill="#ffffff" data-fill-palette-color="primary"></path></g></svg></g></svg></g></svg></g></svg></g><g></g></svg></g></svg></g></svg></g><g><path d="M145.263 37.17A122.216 122.216 0 0 1 250.257 37.17L239.668 37.17A111.627 111.627 0 0 0 155.852 37.17L145.263 37.17M145.263 210.03A122.216 122.216 0 0 0 250.257 210.03L239.668 210.03A111.627 111.627 0 0 1 155.852 210.03L145.263 210.03" fill="#ff851b" stroke="transparent" data-fill-palette-color="tertiary"></path></g></svg></g><defs></defs></svg><rect width="395.52" height="247.2" fill="none" stroke="none" visibility="hidden"></rect></g></svg></g></svg>